<?xml version="1.0" encoding="UTF-8" standalone="no"?>
<!DOCTYPE svg PUBLIC "-//W3C//DTD SVG 1.1//EN" "http://www.w3.org/Graphics/SVG/1.1/DTD/svg11.dtd">
<svg xmlns:dc="http://purl.org/dc/elements/1.1/" xmlns:cc="http://creativecommons.org/ns#" xmlns:rdf="http://www.w3.org/1999/02/22-rdf-syntax-ns#" xmlns:svg="http://www.w3.org/2000/svg" xmlns="http://www.w3.org/2000/svg" version="1.1" width="320.2" height="160.8">
 <path d="M 96.94,97.69 222.5,98.17 159.5,160.8 96.94,97.69 z M 274,47.12 230.1,46.95 229.9,90.82 274,47.12 z M 45.89,46.24 89.69,46.41 89.5,90.21 45.89,46.24 z M 320.2,1.234 230.3,0.8878 230.1,39.5 281.5,39.7 320.2,1.234 z M 0,0 89.86,0.3459 89.71,38.96 38.46,38.76 0,0 z M 159.9,36.94 194.4,0.7542 222.8,0.853 222.5,90.71 197,90.61 197.2,35 159.8,72.84 122.6,34.72 122.4,90.33 96.98,90.23 97.33,0.3753 125.7,0.4906 159.9,36.94 z" fill="#d9261c" />
</svg>
